PathFileType	4	(X/Y/Z)	C:/Users/beibeiliu/ov580/test_trc/User3\out9_training_dense_left.trc
DataRate	CameraRate	NumFrames	NumMarkers	Units	OrigDataRate	OrigDataStartFrame	OrigNumFrames
120	120	18	19	mm	120	1	500
Frame#	Time	ThumbCMC			ThumbMCP			ThumbIP			ThumbTip			IndexMCP			IndexPIP			IndexTip			MiddleMCP			MiddlePIP			MiddleTip			RingMCP			RingPIP			RingTip			PinkyMCP			PinkyPIP			PinkyTip			BackHand1			BackHand2			BackHand3	
		X0	Y0	Z0	X1	Y1	Z1	X2	Y2	Z2	X3	Y3	Z3	X4	Y4	Z4	X5	Y5	Z5	X6	Y6	Z6	X7	Y7	Z7	X8	Y8	Z8	X9	Y9	Z9	X10	Y10	Z10	X11	Y11	Z11	X12	Y12	Z12	X13	Y13	Z13	X14	Y14	Z14	X15	Y15	Z15	X16	Y16	Z16	X17	Y17	Z17	X18	Y18	Z18	
0	0	-83.7024	34.6841	103.836	-66.2512	20.6756	82.385	-48.4041	10.0804	59.0244	-44.0836	-1.8724	33.7716	-85.6203	47.8392	25.8445	-74.4278	42.8811	-0.807836	-66.458	25.008	-27.432	-105.242	50.3169	14.4968	-100.131	43.9833	-15.7597	-95.6458	21.1071	-41.6517	-122.92	43.261	16.1014	-121.124	36.0568	-8.38833	-118.786	12.8966	-28.348	-147.457	32.2856	26.4672	-145.855	22.7983	7.05765	-137.779	3.29204	-10.5575	-135.085	57.4163	64.1568	-144.341	60.7227	97.644	-107.796	61.0159	85.8867	
1	0.00833333	-85.2312	34.3738	100.504	-65.575	21.3437	80.4916	-54.1952	10.2622	57.2051	-46.0202	-2.78492	33.8378	-86.0629	48.1012	23.505	-75.6391	41.9554	-6.00364	-68.7973	23.6065	-28.7604	-104.342	50.8308	11.2733	-99.7475	45.4535	-14.3093	-96.2437	21.1721	-42.4659	-127.871	43.8016	16.1212	-120.338	35.3781	-9.16358	-117.547	8.86734	-31.9697	-146.225	32.8125	30.0241	-145.007	20.5545	1.91745	-141.376	4.25398	-12.5701	-138.133	56.699	66.3904	-142.922	62.2125	93.9952	-106.69	60.3336	83.3701	
2	0.0166667	-86.102	33.7933	102.007	-68.0556	21.112	82.5687	-50.8392	8.74987	54.4264	-47.9721	-2.19063	37.8383	-80.8138	47.8027	20.5257	-76.4756	42.1314	-4.09973	-65.6219	26.3682	-25.4563	-107.474	50.7097	13.8418	-100.11	44.3005	-15.5755	-93.3487	22.4546	-41.3466	-123.438	43.5005	18.7937	-120.01	32.1974	-12.863	-118.602	9.08153	-31.4204	-147.498	33.5801	27.9154	-146.132	21.5015	3.32683	-139.916	3.22465	-10.9749	-138.951	56.9941	65.2062	-142.589	60.2878	93.4773	-109.156	60.0282	85.3968	
3	0.025	-81.905	34.9564	97.7155	-68.037	21.8168	79.0763	-52.4278	10.0565	55.7983	-46.3035	-1.61918	38.8007	-83.3693	48.1677	20.4529	-71.3562	42.3201	-6.85279	-70.4939	27.7077	-25.6566	-105.067	51.0868	15.2359	-99.6652	44.1427	-17.8168	-95.233	22.4854	-42.3985	-122.374	44.1333	15.8849	-120.865	33.6732	-12.4411	-116.89	14.4904	-29.3831	-143.265	33.1112	30.0463	-141.966	24.0011	3.57521	-140.042	5.10081	-13.6062	-136.458	56.0784	62.3374	-146.112	60.6656	91.1325	-107.073	60.9282	82.3498	
4	0.0333333	-86.7381	35.2021	100.314	-66.1408	22.1124	77.4766	-49.5001	9.89841	57.5553	-43.7811	-2.37257	36.7297	-81.0397	49.645	24.0025	-73.5195	45.276	-2.99747	-65.452	29.4899	-25.5158	-101.836	53.1519	9.87127	-96.2861	43.4975	-19.3595	-92.3294	25.0196	-41.7415	-127.024	43.4053	15.5466	-119.241	34.0271	-13.9262	-117.699	10.6033	-31.7412	-147.708	32.6886	25.9471	-141.179	24.4878	5.05713	-139.79	4.8651	-13.9114	-137.301	58.067	62.3721	-140.228	61.9963	90.4651	-107.727	60.4739	81.8938	
5	0.0416667	-85.5544	35.1948	96.5199	-67.432	22.3801	78.3722	-51.6776	10.325	53.8991	-44.0815	-2.98416	35.6641	-80.7917	49.3801	25.4268	-76.2483	43.0364	-6.75631	-66.8513	29.1273	-25.352	-106.182	51.7031	10.3886	-97.7209	45.4336	-17.0868	-95.6101	23.9066	-42.4237	-127.645	43.6034	15.5531	-122.412	33.7309	-13.7182	-119.892	13.3956	-30.4869	-145.763	33.8544	26.9694	-142.322	25.3116	6.51912	-140.47	3.84535	-11.533	-134.91	58.106	66.6286	-143.125	61.1256	92.2365	-104.958	60.6672	84.0206	
6	0.05	-83.409	35.0308	98.0409	-65.1365	21.3901	78.6049	-53.8922	8.73424	58.7302	-47.1855	-2.4454	37.4047	-84.4549	48.9148	20.5622	-73.7467	44.3068	-1.81611	-69.6129	28.5636	-25.2444	-107.423	51.374	10.4389	-98.4567	46.1074	-14.2718	-94.0756	23.7708	-43.8134	-123.715	43.5924	19.3339	-121.959	35.1879	-10.3072	-115.738	11.8985	-32.5192	-148.27	32.8349	26.8334	-143.383	21.1423	2.50904	-140.149	2.93857	-12.3677	-134.126	55.7449	68.0261	-145.059	60.9086	94.3793	-108.65	61.7531	85.2636	
7	0.0583333	-84.5319	35.7564	102.888	-66.3444	21.4955	81.7665	-49.5439	9.84961	55.5939	-43.6705	-2.65341	37.3902	-83.6488	50.0994	22.3396	-72.5523	43.0673	-5.78204	-70.4491	29.5088	-25.6709	-105.729	51.6006	11.2645	-99.5115	45.6233	-14.8352	-90.5719	21.9115	-44.5114	-123.345	44.1096	18.3045	-124.251	34.5076	-10.6687	-119.157	13.9811	-29.8682	-147.34	33.7339	24.7488	-143.542	23.5158	5.78748	-138.471	0.971164	-13.0707	-139.53	56.2369	67.2053	-144.591	60.9159	92.8336	-105.628	62.8935	85.0769	
8	0.0666667	-84.515	34.5969	99.8585	-67.2461	21.1994	78.5683	-54.2645	10.0765	56.4866	-46.7875	-2.09799	33.4879	-83.8055	49.9527	24.6815	-73.7385	43.5803	-6.8377	-64.8228	26.2444	-27.8345	-105.605	52.0074	14.7507	-101.481	44.4018	-18.4718	-93.3417	23.73	-42.8717	-124.958	44.3444	16.2666	-123.573	35.2001	-10.4547	-115.223	12.1402	-30.699	-148.626	33.5216	29.1917	-143.782	24.2927	6.58569	-140.059	2.94408	-12.658	-136.485	55.716	66.057	-145.676	60.2326	95.6933	-107.572	60.3707	85.8272	
9	0.075	-86.8329	34.678	100.891	-63.4971	20.7805	79.7443	-49.4347	9.94215	58.8789	-48.3735	-2.22922	37.3888	-82.1597	49.4812	23.3912	-76.4769	45.2511	-3.06431	-68.41	28.9873	-27.1136	-103.457	52.5542	12.5378	-97.1535	46.1964	-16.2824	-92.2688	24.6272	-41.6847	-121.356	44.9258	15.6243	-124.507	36.3098	-9.85179	-117.173	12.487	-29.5978	-144	33.7173	30.7887	-143.523	22.4791	4.0591	-138.022	3.60497	-11.1845	-139.087	56.323	65.8902	-144.355	60.9819	91.4669	-106.547	60.9133	86.5263	
10	0.0833333	-84.1054	35.0518	98.9929	-65.5872	21.1597	79.6683	-51.0899	9.19551	56.2585	-44.9418	-2.76438	34.5819	-84.3826	48.4625	21.6711	-73.598	44.0347	-3.6471	-68.7642	26.7226	-28.6674	-104.524	51.9495	10.4524	-98.2153	45.3071	-15.3993	-95.9773	24.0466	-42.1988	-127.962	42.8198	16.0923	-123.77	35.0114	-10.1807	-116.109	10.6497	-30.9306	-143.893	33.0371	30.1796	-142.765	23.0486	3.91399	-137.698	2.985	-10.6639	-138.931	55.781	66.0578	-143.444	59.2253	90.5437	-108.358	61.2151	84.6198	
11	0.0916667	-87.869	33.2122	100.411	-63.2511	20.0394	81.1256	-49.2193	8.72357	57.401	-47.769	-2.65684	36.1718	-82.3303	48.3131	20.9972	-72.7439	42.5886	-6.30637	-68.6451	28.843	-26.4235	-104.599	51.1827	12.8854	-99.7803	44.6966	-18.3307	-93.4132	21.6408	-45.5878	-126.563	42.349	17.6787	-120.357	34.6343	-9.65396	-118.7	12.0992	-29.7929	-141.319	33.1845	24.7644	-141.412	23.5509	5.73336	-139.004	0.3677	-12.9278	-137.986	56.9023	63.4525	-145.843	60.0723	91.3635	-104.765	58.7458	83.1472	
12	0.1	-86.7824	34.3795	96.0317	-68.5465	19.6367	78.5276	-48.8479	7.56198	57.3023	-43.3743	-3.32424	36.0496	-81.0701	48.4584	20.0115	-70.6032	43.132	-5.21871	-66.8362	29.5656	-25.5336	-102.205	51.1842	11.2007	-98.6741	43.563	-19.4037	-94.3951	24.3158	-43.2076	-127.552	42.5289	15.7138	-118.547	32.5964	-12.3324	-117.167	9.82219	-30.0825	-146.016	31.8022	28.0209	-143.504	22.5494	5.86739	-137.157	0.312438	-13.7293	-133.153	54.6227	62.9927	-143.256	59.3059	94.0664	-107.085	58.4575	84.9673	
13	0.108333	-85.9123	32.8565	100.791	-63.8453	19.7108	78.8752	-48.6794	8.65673	55.5773	-44.1929	-3.87841	34.8576	-85.9974	48.0151	23.2856	-74.5174	45.0239	-2.99094	-67.2998	27.7917	-28.4914	-104.252	51.7749	9.80214	-97.5359	43.852	-18.2637	-92.5154	24.6939	-42.1393	-124.828	42.4704	14.6577	-121.797	33.7266	-9.0311	-117.104	10.9051	-28.4773	-142.306	32.5929	24.9491	-142.775	18.8855	2.31476	-136.535	0.851631	-12.377	-134.526	54.1278	63.529	-142.978	60.497	92.1098	-107.711	60.8499	87.2157	
14	0.116667	-84.013	33.908	100.314	-65.4302	20.0025	81.7836	-49.1235	8.04209	57.9958	-46.2101	-3.01705	36.1867	-85.6947	48.6091	20.5185	-76.074	44.3329	-4.7183	-68.2251	28.0764	-27.6724	-103.673	51.1054	13.3908	-97.1818	44.5596	-16.6408	-94.1419	20.8729	-45.8639	-124.742	42.6106	15.8136	-121.855	32.8612	-11.0726	-116.885	11.4349	-27.6047	-146.829	32.1079	24.1401	-145.279	22.1211	5.19211	-138.858	-1.10838	-14.3059	-139.038	55.7144	65.7275	-141.954	58.0572	92.1549	-108.293	59.7955	84.3849	
15	0.125	-84.4313	32.4768	99.8492	-66.36	19.038	78.4395	-49.0672	7.93722	53.3763	-45.0273	-4.89889	37.6784	-83.6433	48.2654	22.7263	-72.3022	44.0984	-4.39664	-69.8035	26.9771	-30.7517	-106.938	51.2362	13.9596	-96.3022	43.8912	-19.1756	-93.3591	23.9606	-43.4671	-126.518	42.864	17.4151	-121.053	33.7276	-9.18308	-119.179	10.3103	-28.4332	-147.73	32.2145	25.5279	-142.804	21.6408	5.07928	-136.684	0.716739	-12.2459	-135.687	54.4381	63.6616	-142.23	58.8279	92.9734	-105.337	60.7988	82.2869	
16	0.133333	-84.0325	33.5637	101.294	-64.048	19.5705	76.1161	-51.1597	8.48087	55.5739	-45.2965	-3.06129	32.5573	-85.0267	48.8208	24.5958	-75.8986	43.3778	-7.01758	-69.5188	29.8585	-28.4518	-108.61	51.0284	15.0773	-101.248	46.1075	-17.7488	-95.3472	26.0734	-43.2594	-123.2	42.6018	16.5738	-123.296	33.1626	-11.8678	-118.825	7.9164	-31.3406	-145.824	31.8982	25.1718	-143.704	22.0997	5.49322	-138.194	1.74017	-10.0514	-137.238	55.6027	67.8336	-141.086	60.5537	91.415	-107.204	60.8183	81.5367	
17	0.141667	-82.7361	34.4748	99.2901	-67.0747	19.9467	80.2621	-51.8963	8.38835	56.8913	-45.0365	-3.55842	34.4553	-82.7714	49.8971	25.2866	-76.4641	44.6999	-7.08037	-69.5991	31.4438	-27.8495	-107.137	53.3371	10.8687	-99.4868	48.1709	-16.3901	-96.1548	25.8297	-46.8139	-127.105	43.9006	15.4407	-124.686	35.7564	-10.1842	-115.276	10.6045	-28.9324	-145.329	33.1401	28.3407	-144.734	21.055	2.92138	-139.721	3.38711	-9.40491	-135.596	56.379	65.0361	-144.185	59.8354	90.6055	-109.838	60.8817	82.8996	
